<?xml version="1.0" encoding="UTF-8" standalone="no"?>
<svg
   inkscape:version="1.3 (0e150ed6c4, 2023-07-21)"
   sodipodi:docname="typewriter_openclipart_edited.svg"
   viewBox="0 0 776.41223 776.41224"
   height="776.41223"
   width="776.41223"
   id="svg2"
   version="1.1"
   xmlns:inkscape="http://www.inkscape.org/namespaces/inkscape"
   xmlns:sodipodi="http://sodipodi.sourceforge.net/DTD/sodipodi-0.dtd"
   xmlns:xlink="http://www.w3.org/1999/xlink"
   xmlns="http://www.w3.org/2000/svg"
   xmlns:svg="http://www.w3.org/2000/svg"
   xmlns:rdf="http://www.w3.org/1999/02/22-rdf-syntax-ns#"
   xmlns:cc="http://creativecommons.org/ns#"
   xmlns:dc="http://purl.org/dc/elements/1.1/">
  <metadata
     id="metadata8">
    <rdf:RDF>
      <cc:Work
         rdf:about="">
        <dc:format>image/svg+xml</dc:format>
        <dc:type
           rdf:resource="http://purl.org/dc/dcmitype/StillImage" />
      </cc:Work>
    </rdf:RDF>
  </metadata>
  <defs
     id="defs6">
    <rect
       x="311.49279"
       y="140.06799"
       width="219.33372"
       height="89.057902"
       id="rect1" />
    <linearGradient
       id="linearGradient1540"
       inkscape:collect="always">
      <stop
         style="stop-color:#f2f2f2;stop-opacity:1"
         offset="0"
         id="stop1538" />
      <stop
         style="stop-color:#caebfc;stop-opacity:1;"
         offset="1"
         id="stop1536" />
    </linearGradient>
    <linearGradient
       id="linearGradient34"
       inkscape:collect="always">
      <stop
         id="stop30"
         offset="0"
         style="stop-color:#58595b;stop-opacity:1;" />
      <stop
         id="stop32"
         offset="1"
         style="stop-color:#797979;stop-opacity:1" />
    </linearGradient>
    <linearGradient
       gradientTransform="matrix(2.0249964,0,0,2.1535016,-496.65659,-345.19742)"
       gradientUnits="userSpaceOnUse"
       y2="269.67294"
       x2="602.52075"
       y1="335.49579"
       x1="602.2597"
       id="linearGradient36"
       xlink:href="#linearGradient34"
       inkscape:collect="always" />
    <linearGradient
       gradientUnits="userSpaceOnUse"
       y2="60.27729"
       x2="892.23236"
       y1="-299.23294"
       x1="712.20227"
       id="linearGradient1542"
       xlink:href="#linearGradient1540"
       inkscape:collect="always" />
  </defs>
  <sodipodi:namedview
     fit-margin-left="3"
     fit-margin-bottom="3"
     fit-margin-right="3"
     fit-margin-top="3"
     inkscape:current-layer="g10"
     inkscape:window-maximized="1"
     inkscape:window-y="0"
     inkscape:window-x="0"
     inkscape:cy="242.56688"
     inkscape:cx="179.80482"
     inkscape:zoom="0.29476407"
     inkscape:snap-global="false"
     showgrid="false"
     id="namedview4"
     inkscape:window-height="709"
     inkscape:window-width="1366"
     inkscape:pageshadow="2"
     inkscape:pageopacity="0"
     guidetolerance="10"
     gridtolerance="10"
     objecttolerance="10"
     borderopacity="1"
     bordercolor="#666666"
     pagecolor="#ffffff"
     inkscape:showpageshadow="2"
     inkscape:pagecheckerboard="0"
     inkscape:deskcolor="#d1d1d1" />
  <g
     transform="translate(-700.09149,640.1356)"
     id="g10"
     inkscape:label="Image"
     inkscape:groupmode="layer">
    <g
       transform="matrix(0.95162983,0,0,0.95162983,52.641143,-12.185873)"
       id="g3433">
      <circle
         style="opacity:1;fill:#00adef;fill-opacity:1;stroke:none;stroke-width:5.2;stroke-linecap:round;stroke-linejoin:round;stroke-miterlimit:4;stroke-dasharray:none;stroke-opacity:1"
         id="path1657"
         cx="1088.2976"
         cy="-251.92949"
         r="385.20612" />
      <g
         id="g1655"
         transform="translate(235.43851,-317.08357)">
        <path
           sodipodi:nodetypes="ccccccccc"
           d="m 623.01331,26.954775 h 486.52559 l -10.6826,113.385975 5.3128,75.38864 33.1446,81.25726 H 595.23848 l 32.59561,-81.25726 5.86186,-75.38864 z"
           style="fill:#4c4c4c;fill-opacity:1;stroke-width:2.13653"
           id="rect25" />
        <path
           id="path28"
           style="fill:#000000;stroke-width:1.44807"
           d="m 659.34785,177.36349 h 403.08865 c 0,0 4.3492,62.46115 5.3728,83.2829 1.0237,20.82176 28.0014,47.53257 54.3077,83.4519 H 599.66735 c 30.15942,-37.22573 51.46326,-63.07708 54.30773,-83.4519 2.84448,-20.37481 5.37277,-83.2829 5.37277,-83.2829 z"
           sodipodi:nodetypes="cczcczc" />
        <path
           d="m 583.64493,293.41677 4.05,44.85339 c 2.31749,25.6661 19.5173,46.54003 43.76286,46.54003 h 465.92711 c 24.2456,0 43.7629,-20.75588 43.7629,-46.54003 l 4.05,-44.85339 h -121.6619 c 0.01,0.30271 0.019,0.60429 0.019,0.90849 0,25.1032 -19.0027,45.31187 -42.60794,45.31187 H 738.65208 c -23.60524,0 -42.60798,-20.20867 -42.60798,-45.31187 0,-0.3042 0.0151,-0.60578 0.0194,-0.90849 z"
           style="fill:url(#linearGradient36);fill-opacity:1;stroke-width:2.08826"
           id="rect14" />
        <path
           sodipodi:arc-type="arc"
           sodipodi:open="true"
           sodipodi:end="3.1591656"
           sodipodi:start="0"
           sodipodi:ry="100.97279"
           sodipodi:rx="127.49551"
           sodipodi:cy="32.292706"
           sodipodi:cx="866.27606"
           sodipodi:type="arc"
           id="path46"
           style="fill:#000000;fill-opacity:1;stroke-width:2.57727"
           d="M 993.77157,32.292706 A 127.49551,100.97279 0 0 1 929.37596,120.03194 127.49551,100.97279 0 0 1 801.23918,119.14026 127.49551,100.97279 0 0 1 738.80024,30.518407" />
        <path
           style="fill:#3e3f3a;fill-opacity:1;stroke-width:2.01398"
           id="path48"
           sodipodi:type="arc"
           sodipodi:cx="866.27606"
           sodipodi:cy="10.444439"
           sodipodi:rx="114.10515"
           sodipodi:ry="68.894783"
           sodipodi:start="0"
           sodipodi:end="3.1591656"
           sodipodi:open="true"
           sodipodi:arc-type="arc"
           d="M 980.38121,10.444439 A 114.10515,68.894783 0 0 1 922.74882,70.309827 114.10515,68.894783 0 0 1 808.06975,69.701425 114.10515,68.894783 0 0 1 752.18853,9.2338169" />
        <path
           sodipodi:arc-type="arc"
           sodipodi:open="true"
           sodipodi:end="3.1591656"
           sodipodi:start="0"
           sodipodi:ry="69.478775"
           sodipodi:rx="104.16019"
           sodipodi:cy="-12.432622"
           sodipodi:cx="866.27606"
           sodipodi:type="arc"
           id="path50"
           style="fill:#999999;fill-opacity:1;stroke-width:1.93235"
           d="M 970.43625,-12.432622 A 104.16019,69.478775 0 0 1 917.82687,47.94022 104.16019,69.478775 0 0 1 813.14278,47.32666 104.16019,69.478775 0 0 1 762.13196,-13.653506" />
        <path
           style="fill:#575757;fill-opacity:1;stroke-width:1.63021"
           id="path52"
           sodipodi:type="arc"
           sodipodi:cx="866.27606"
           sodipodi:cy="-22.551313"
           sodipodi:rx="87.873428"
           sodipodi:ry="58.614891"
           sodipodi:start="0"
           sodipodi:end="3.1591656"
           sodipodi:open="true"
           sodipodi:arc-type="arc"
           d="M 954.14949,-22.551313 A 87.873428,58.614891 0 0 1 909.76625,28.381472 87.873428,58.614891 0 0 1 821.45084,27.86385 87.873428,58.614891 0 0 1 778.4162,-23.581297" />
        <g
           transform="matrix(2.1535016,0,0,2.1535016,-574.98588,-271.82811)"
           id="g60">
          <path
             sodipodi:nodetypes="cssccscscc"
             id="path56"
             d="m 550.98428,149.69041 c 0,0 -2.1973,-2.97128 -0.10267,-6.87068 2.19469,-4.08565 4.92698,-8.88856 6.91405,-11.42642 3.73499,-4.77029 13.56806,-12.5862 13.56806,-12.5862 l 53.29183,-2.14837 c 0,0 1.63302,6.26643 1.09395,9.35179 -0.76756,4.39318 -3.07008,12.03501 -3.07008,12.03501 0,0 2.84397,5.68731 1.82865,8.30029 -1.1136,2.86588 -7.31458,4.55907 -7.31458,4.55907 z"
             style="fill:#797979;fill-opacity:1;stroke:none;stroke-width:1.1839px;stroke-linecap:butt;stroke-linejoin:miter;stroke-opacity:1" />
          <path
             style="fill:#989898;fill-opacity:1;stroke:none;stroke-width:1px;stroke-linecap:butt;stroke-linejoin:miter;stroke-opacity:1"
             d="m 551.50349,142.91526 c 0,0 5.18079,-11.30306 8.65265,-15.26145 3.33906,-3.80698 11.77005,-9.60455 11.77005,-9.60455 l 51.38936,-1.4276 c 0,0 1.4599,5.00098 0.97798,7.46329 -0.68619,3.50602 -5.296,9.31772 -5.296,9.31772 0,0 2.54249,4.53882 1.6348,6.62413 -0.99555,2.28714 -6.53918,3.63841 -6.53918,3.63841 z"
             id="path54"
             sodipodi:nodetypes="csccscscc" />
        </g>
        <rect
           y="-157.76949"
           x="702.73389"
           height="102.52236"
           width="332.6828"
           id="rect1249"
           style="fill:#494441;fill-opacity:1;stroke:none;stroke-width:5.13179;stroke-linecap:round;stroke-linejoin:round;stroke-miterlimit:4;stroke-dasharray:none;stroke-opacity:1" />
        <rect
           transform="scale(-1)"
           style="fill:#7d5345;fill-opacity:1;stroke:none;stroke-width:5.58192;stroke-linecap:round;stroke-linejoin:round;stroke-miterlimit:4;stroke-dasharray:none;stroke-opacity:1"
           id="rect1263"
           width="26.559046"
           height="35.022789"
           x="-1075.1704"
           y="39.857269"
           ry="0" />
        <rect
           ry="7.6805711"
           y="-97.35817"
           x="642.45105"
           height="85.900795"
           width="54.943687"
           id="rect1302"
           style="fill:#4b433f;fill-opacity:1;stroke:none;stroke-width:7.66832;stroke-linecap:round;stroke-linejoin:round;stroke-miterlimit:4;stroke-dasharray:none;stroke-opacity:1" />
        <rect
           ry="0"
           y="-99.446854"
           x="685.08972"
           height="79.444366"
           width="366.19397"
           id="rect1247"
           style="fill:#797979;fill-opacity:1;stroke:none;stroke-width:5.13179;stroke-linecap:round;stroke-linejoin:round;stroke-miterlimit:4;stroke-dasharray:none;stroke-opacity:1" />
        <g
           transform="matrix(-2.1535016,0,0,2.1535016,2307.7561,-271.82811)"
           id="g66">
          <path
             style="fill:#797979;fill-opacity:1;stroke:none;stroke-width:1.1839px;stroke-linecap:butt;stroke-linejoin:miter;stroke-opacity:1"
             d="m 550.98428,149.69041 c 0,0 -2.1973,-2.97128 -0.10267,-6.87068 2.19469,-4.08565 4.92698,-8.88856 6.91405,-11.42642 3.73499,-4.77029 13.56806,-12.5862 13.56806,-12.5862 l 53.29183,-2.14837 c 0,0 1.63302,6.26643 1.09395,9.35179 -0.76756,4.39318 -3.07008,12.03501 -3.07008,12.03501 0,0 2.84397,5.68731 1.82865,8.30029 -1.1136,2.86588 -7.31458,4.55907 -7.31458,4.55907 z"
             id="path62"
             sodipodi:nodetypes="cssccscscc" />
          <path
             sodipodi:nodetypes="csccscscc"
             id="path64"
             d="m 551.50349,142.91526 c 0,0 5.18079,-11.30306 8.65265,-15.26145 3.33906,-3.80698 11.77005,-9.60455 11.77005,-9.60455 l 51.38936,-1.4276 c 0,0 1.4599,5.00098 0.97798,7.46329 -0.68619,3.50602 -5.296,9.31772 -5.296,9.31772 0,0 2.54249,4.53882 1.6348,6.62413 -0.99555,2.28714 -6.53918,3.63841 -6.53918,3.63841 z"
             style="fill:#989898;fill-opacity:1;stroke:none;stroke-width:1px;stroke-linecap:butt;stroke-linejoin:miter;stroke-opacity:1" />
        </g>
        <rect
           y="-34.402473"
           x="843.43518"
           height="20.974066"
           width="48.133942"
           id="rect1236"
           style="fill:#959493;fill-opacity:1;stroke:none;stroke-width:5.42411;stroke-linecap:round;stroke-linejoin:round;stroke-miterlimit:4;stroke-dasharray:none;stroke-opacity:1" />
        <path
           id="path1300"
           d="m 719.24746,-26.457535 298.02454,0.317814 -2.5224,-132.242909 -20.08393,-71.74404 -255.45036,-2.1895 -19.35742,77.4751 z"
           style="fill:url(#linearGradient1542);fill-opacity:1;stroke:none;stroke-width:2.1535px;stroke-linecap:butt;stroke-linejoin:miter;stroke-opacity:1" />
        <rect
           transform="matrix(0.99893335,-0.04617528,0.03789635,0.99928168,0,0)"
           y="4.2055469"
           x="673.65234"
           height="21.34664"
           width="174.88937"
           id="rect99"
           style="fill:#000000;fill-opacity:1;stroke:none;stroke-width:1.82784" />
        <g
           transform="matrix(1.9022657,0,0,1.9022657,-386.89121,-273.40404)"
           id="g89">
          <ellipse
             ry="9.0271406"
             rx="25.2659"
             cy="146.02519"
             cx="571.76178"
             id="ellipse82"
             style="opacity:1;fill:#585858;fill-opacity:1;stroke:none" />
          <rect
             style="opacity:1;fill:#585858;fill-opacity:1;stroke:none;stroke-width:0.992793"
             id="rect84"
             width="50.432758"
             height="8.2335596"
             x="546.46057"
             y="137.71593" />
          <ellipse
             style="opacity:1;fill:#404040;fill-opacity:1;stroke:none"
             id="path80"
             cx="571.76178"
             cy="136.82709"
             rx="25.2659"
             ry="9.0271406" />
        </g>
        <rect
           style="fill:#000000;fill-opacity:1;stroke:none;stroke-width:1.83214"
           id="rect101"
           width="175.71082"
           height="21.346785"
           x="-1056.3851"
           y="-75.509209"
           transform="matrix(-0.99894331,-0.04595941,-0.03807447,0.9992749,0,0)" />
        <rect
           ry="3.620486"
           y="-57.772743"
           x="1080.9156"
           height="7.240972"
           width="21.96883"
           id="rect1259"
           style="fill:#c1a89b;fill-opacity:1;stroke:none;stroke-width:6.31114;stroke-linecap:round;stroke-linejoin:round;stroke-miterlimit:4;stroke-dasharray:none;stroke-opacity:1" />
        <rect
           ry="5.1734996"
           y="1059.225"
           x="9.4205093"
           height="22.932247"
           width="95.896263"
           id="rect1261"
           style="fill:#7d5345;fill-opacity:1;stroke:none;stroke-width:8.58276;stroke-linecap:round;stroke-linejoin:round;stroke-miterlimit:4;stroke-dasharray:none;stroke-opacity:1"
           transform="rotate(-90)" />
        <rect
           transform="rotate(-90)"
           style="fill:#494441;fill-opacity:1;stroke:none;stroke-width:9.50164;stroke-linecap:round;stroke-linejoin:round;stroke-miterlimit:4;stroke-dasharray:none;stroke-opacity:1"
           id="rect1253"
           width="106.16311"
           height="25.387421"
           x="5.2361555"
           y="1064.3605"
           ry="5.7273846" />
        <rect
           ry="6.0142441"
           y="1106.0306"
           x="19.587456"
           height="26.658964"
           width="71.782799"
           id="rect1255"
           style="fill:#494441;fill-opacity:1;stroke:none;stroke-width:8.00633;stroke-linecap:round;stroke-linejoin:round;stroke-miterlimit:4;stroke-dasharray:none;stroke-opacity:1"
           transform="rotate(-90)" />
        <rect
           transform="scale(-1)"
           style="fill:#494441;fill-opacity:1;stroke:none;stroke-width:3.93807;stroke-linecap:round;stroke-linejoin:round;stroke-miterlimit:4;stroke-dasharray:none;stroke-opacity:1"
           id="rect1257"
           width="19.495646"
           height="23.747887"
           x="-1116.3743"
           y="42.149372"
           ry="5.3575072" />
        <g
           id="g97"
           transform="matrix(1.9022657,0,0,1.9022657,-60.408544,-273.40404)">
          <ellipse
             style="opacity:1;fill:#585858;fill-opacity:1;stroke:none"
             id="ellipse91"
             cx="571.76178"
             cy="146.02519"
             rx="25.2659"
             ry="9.0271406" />
          <rect
             y="137.71593"
             x="546.46057"
             height="8.2335596"
             width="50.432758"
             id="rect93"
             style="opacity:1;fill:#585858;fill-opacity:1;stroke:none;stroke-width:0.992793" />
          <ellipse
             ry="9.0271406"
             rx="25.2659"
             cy="136.82709"
             cx="571.76178"
             id="ellipse95"
             style="opacity:1;fill:#404040;fill-opacity:1;stroke:none" />
        </g>
        <path
           id="path103"
           d="m 674.17745,299.78607 18.21464,-0.1417 20.31617,43.72739 291.15614,1.54091 17.531,-43.96153 17.3285,-1.37756 v 0"
           style="fill:none;stroke:#3c3c3a;stroke-width:16.6476;stroke-linecap:butt;stroke-linejoin:round;stroke-miterlimit:4;stroke-dasharray:none;stroke-opacity:1" />
        <g
           transform="matrix(1.8797499,0,0,1.8797499,201.65468,-591.78997)"
           id="g1234">
          <g
             id="g1045">
            <g
               inkscape:tile-y0="456.48046"
               inkscape:tile-x0="238.28097"
               inkscape:tile-h="18.474423"
               inkscape:tile-w="22.186417"
               inkscape:tile-cy="466.15331"
               inkscape:tile-cx="249.37418"
               transform="matrix(0.47185503,0,0,0.73124047,-56.655945,184.93174)"
               id="g974">
              <ellipse
                 style="fill:#8f8676;fill-opacity:1;stroke:none;stroke-width:0.883336"
                 id="ellipse954"
                 cx="648.56812"
                 cy="388.64401"
                 rx="22.318281"
                 ry="7.973999" />
              <rect
                 y="381.30414"
                 x="626.21869"
                 height="7.2730002"
                 width="44.549076"
                 id="rect956"
                 style="fill:#8f8676;fill-opacity:1;stroke:none;stroke-width:0.87697" />
              <ellipse
                 ry="7.973999"
                 rx="22.318281"
                 cy="380.51901"
                 cx="648.56812"
                 id="ellipse958"
                 style="fill:#cdcbb6;fill-opacity:1;stroke:none;stroke-width:0.883336" />
              <ellipse
                 ry="7.1681571"
                 rx="22.378565"
                 cy="381.38513"
                 cx="648.56812"
                 id="ellipse967"
                 style="fill:none;fill-opacity:1;stroke:#ada092;stroke-width:2.26243;stroke-miterlimit:4;stroke-dasharray:none;stroke-opacity:1" />
              <ellipse
                 style="fill:none;fill-opacity:1;stroke:#e8dacb;stroke-width:2.383;stroke-miterlimit:4;stroke-dasharray:none;stroke-opacity:1"
                 id="ellipse965"
                 cx="648.56812"
                 cy="380.51901"
                 rx="22.318281"
                 ry="7.973999" />
            </g>
            <use
               height="100%"
               width="100%"
               id="use1012"
               xlink:href="#g974"
               inkscape:tiled-clone-of="#g974"
               y="0"
               x="0" />
            <use
               height="100%"
               width="100%"
               id="use1014"
               transform="translate(25.51438)"
               xlink:href="#g974"
               inkscape:tiled-clone-of="#g974"
               y="0"
               x="0" />
            <use
               height="100%"
               width="100%"
               id="use1016"
               transform="translate(51.028759)"
               xlink:href="#g974"
               inkscape:tiled-clone-of="#g974"
               y="0"
               x="0" />
            <use
               height="100%"
               width="100%"
               id="use1018"
               transform="translate(76.543139)"
               xlink:href="#g974"
               inkscape:tiled-clone-of="#g974"
               y="0"
               x="0" />
            <use
               height="100%"
               width="100%"
               id="use1020"
               transform="translate(102.05752)"
               xlink:href="#g974"
               inkscape:tiled-clone-of="#g974"
               y="0"
               x="0" />
            <use
               height="100%"
               width="100%"
               id="use1022"
               transform="translate(127.5719)"
               xlink:href="#g974"
               inkscape:tiled-clone-of="#g974"
               y="0"
               x="0" />
            <use
               height="100%"
               width="100%"
               id="use1024"
               transform="translate(153.08628)"
               xlink:href="#g974"
               inkscape:tiled-clone-of="#g974"
               y="0"
               x="0" />
            <use
               height="100%"
               width="100%"
               id="use1026"
               transform="translate(178.60066)"
               xlink:href="#g974"
               inkscape:tiled-clone-of="#g974"
               y="0"
               x="0" />
            <use
               height="100%"
               width="100%"
               id="use1028"
               transform="translate(204.11504)"
               xlink:href="#g974"
               inkscape:tiled-clone-of="#g974"
               y="0"
               x="0" />
          </g>
          <g
             id="g1108">
            <g
               id="g1057"
               transform="matrix(0.47185503,0,0,0.73124047,-44.530186,165.83313)"
               inkscape:tile-cx="249.37418"
               inkscape:tile-cy="466.15331"
               inkscape:tile-w="22.186417"
               inkscape:tile-h="18.474423"
               inkscape:tile-x0="238.28097"
               inkscape:tile-y0="456.48046">
              <ellipse
                 ry="7.973999"
                 rx="22.318281"
                 cy="388.64401"
                 cx="648.56812"
                 id="ellipse1047"
                 style="fill:#8f8676;fill-opacity:1;stroke:none;stroke-width:0.883336" />
              <rect
                 style="fill:#8f8676;fill-opacity:1;stroke:none;stroke-width:0.87697"
                 id="rect1049"
                 width="44.549076"
                 height="7.2730002"
                 x="626.21869"
                 y="381.30414" />
              <ellipse
                 style="fill:#cdcbb6;fill-opacity:1;stroke:none;stroke-width:0.883336"
                 id="ellipse1051"
                 cx="648.56812"
                 cy="380.51901"
                 rx="22.318281"
                 ry="7.973999" />
              <ellipse
                 style="fill:none;fill-opacity:1;stroke:#ada092;stroke-width:2.26243;stroke-miterlimit:4;stroke-dasharray:none;stroke-opacity:1"
                 id="ellipse1053"
                 cx="648.56812"
                 cy="381.38513"
                 rx="22.378565"
                 ry="7.1681571" />
              <ellipse
                 ry="7.973999"
                 rx="22.318281"
                 cy="380.51901"
                 cx="648.56812"
                 id="ellipse1055"
                 style="fill:none;fill-opacity:1;stroke:#e8dacb;stroke-width:2.383;stroke-miterlimit:4;stroke-dasharray:none;stroke-opacity:1" />
            </g>
            <use
               transform="translate(12.125759,-19.098605)"
               x="0"
               y="0"
               inkscape:tiled-clone-of="#g974"
               xlink:href="#g974"
               id="use1059"
               width="100%"
               height="100%" />
            <use
               x="0"
               y="0"
               inkscape:tiled-clone-of="#g974"
               xlink:href="#g974"
               transform="translate(37.640139,-19.098605)"
               id="use1061"
               width="100%"
               height="100%" />
            <use
               x="0"
               y="0"
               inkscape:tiled-clone-of="#g974"
               xlink:href="#g974"
               transform="translate(63.154518,-19.098605)"
               id="use1063"
               width="100%"
               height="100%" />
            <use
               x="0"
               y="0"
               inkscape:tiled-clone-of="#g974"
               xlink:href="#g974"
               transform="translate(88.668898,-19.098605)"
               id="use1065"
               width="100%"
               height="100%" />
            <use
               x="0"
               y="0"
               inkscape:tiled-clone-of="#g974"
               xlink:href="#g974"
               transform="translate(114.18328,-19.098605)"
               id="use1067"
               width="100%"
               height="100%" />
            <use
               x="0"
               y="0"
               inkscape:tiled-clone-of="#g974"
               xlink:href="#g974"
               transform="translate(139.69766,-19.098605)"
               id="use1069"
               width="100%"
               height="100%" />
            <use
               x="0"
               y="0"
               inkscape:tiled-clone-of="#g974"
               xlink:href="#g974"
               transform="translate(165.21204,-19.098605)"
               id="use1071"
               width="100%"
               height="100%" />
            <use
               x="0"
               y="0"
               inkscape:tiled-clone-of="#g974"
               xlink:href="#g974"
               transform="translate(190.72642,-19.098605)"
               id="use1073"
               width="100%"
               height="100%" />
          </g>
          <g
             id="g1140"
             transform="translate(0,-38.707505)">
            <g
               id="g1120"
               transform="matrix(0.47185503,0,0,0.73124047,-56.655945,184.93174)"
               inkscape:tile-cx="249.37418"
               inkscape:tile-cy="466.15331"
               inkscape:tile-w="22.186417"
               inkscape:tile-h="18.474423"
               inkscape:tile-x0="238.28097"
               inkscape:tile-y0="456.48046">
              <ellipse
                 ry="7.973999"
                 rx="22.318281"
                 cy="388.64401"
                 cx="648.56812"
                 id="ellipse1110"
                 style="fill:#8f8676;fill-opacity:1;stroke:none;stroke-width:0.883336" />
              <rect
                 style="fill:#8f8676;fill-opacity:1;stroke:none;stroke-width:0.87697"
                 id="rect1112"
                 width="44.549076"
                 height="7.2730002"
                 x="626.21869"
                 y="381.30414" />
              <ellipse
                 style="fill:#cdcbb6;fill-opacity:1;stroke:none;stroke-width:0.883336"
                 id="ellipse1114"
                 cx="648.56812"
                 cy="380.51901"
                 rx="22.318281"
                 ry="7.973999" />
              <ellipse
                 style="fill:none;fill-opacity:1;stroke:#ada092;stroke-width:2.26243;stroke-miterlimit:4;stroke-dasharray:none;stroke-opacity:1"
                 id="ellipse1116"
                 cx="648.56812"
                 cy="381.38513"
                 rx="22.378565"
                 ry="7.1681571" />
              <ellipse
                 ry="7.973999"
                 rx="22.318281"
                 cy="380.51901"
                 cx="648.56812"
                 id="ellipse1118"
                 style="fill:none;fill-opacity:1;stroke:#e8dacb;stroke-width:2.383;stroke-miterlimit:4;stroke-dasharray:none;stroke-opacity:1" />
            </g>
            <use
               x="0"
               y="0"
               inkscape:tiled-clone-of="#g974"
               xlink:href="#g974"
               id="use1122"
               width="100%"
               height="100%" />
            <use
               x="0"
               y="0"
               inkscape:tiled-clone-of="#g974"
               xlink:href="#g974"
               transform="translate(25.51438)"
               id="use1124"
               width="100%"
               height="100%" />
            <use
               x="0"
               y="0"
               inkscape:tiled-clone-of="#g974"
               xlink:href="#g974"
               transform="translate(51.028759)"
               id="use1126"
               width="100%"
               height="100%" />
            <use
               x="0"
               y="0"
               inkscape:tiled-clone-of="#g974"
               xlink:href="#g974"
               transform="translate(76.543139)"
               id="use1128"
               width="100%"
               height="100%" />
            <use
               x="0"
               y="0"
               inkscape:tiled-clone-of="#g974"
               xlink:href="#g974"
               transform="translate(102.05752)"
               id="use1130"
               width="100%"
               height="100%" />
            <use
               x="0"
               y="0"
               inkscape:tiled-clone-of="#g974"
               xlink:href="#g974"
               transform="translate(127.5719)"
               id="use1132"
               width="100%"
               height="100%" />
            <use
               x="0"
               y="0"
               inkscape:tiled-clone-of="#g974"
               xlink:href="#g974"
               transform="translate(153.08628)"
               id="use1134"
               width="100%"
               height="100%" />
            <use
               x="0"
               y="0"
               inkscape:tiled-clone-of="#g974"
               xlink:href="#g974"
               transform="translate(178.60066)"
               id="use1136"
               width="100%"
               height="100%" />
            <use
               x="0"
               y="0"
               inkscape:tiled-clone-of="#g974"
               xlink:href="#g974"
               transform="translate(204.11504)"
               id="use1138"
               width="100%"
               height="100%" />
          </g>
          <g
             id="g1170"
             transform="translate(0,-38.389909)">
            <g
               inkscape:tile-y0="456.48046"
               inkscape:tile-x0="238.28097"
               inkscape:tile-h="18.474423"
               inkscape:tile-w="22.186417"
               inkscape:tile-cy="466.15331"
               inkscape:tile-cx="249.37418"
               transform="matrix(0.47185503,0,0,0.73124047,-44.530186,165.83313)"
               id="g1152">
              <ellipse
                 style="fill:#8f8676;fill-opacity:1;stroke:none;stroke-width:0.883336"
                 id="ellipse1142"
                 cx="648.56812"
                 cy="388.64401"
                 rx="22.318281"
                 ry="7.973999" />
              <rect
                 y="381.30414"
                 x="626.21869"
                 height="7.2730002"
                 width="44.549076"
                 id="rect1144"
                 style="fill:#8f8676;fill-opacity:1;stroke:none;stroke-width:0.87697" />
              <ellipse
                 ry="7.973999"
                 rx="22.318281"
                 cy="380.51901"
                 cx="648.56812"
                 id="ellipse1146"
                 style="fill:#cdcbb6;fill-opacity:1;stroke:none;stroke-width:0.883336" />
              <ellipse
                 ry="7.1681571"
                 rx="22.378565"
                 cy="381.38513"
                 cx="648.56812"
                 id="ellipse1148"
                 style="fill:none;fill-opacity:1;stroke:#ada092;stroke-width:2.26243;stroke-miterlimit:4;stroke-dasharray:none;stroke-opacity:1" />
              <ellipse
                 style="fill:none;fill-opacity:1;stroke:#e8dacb;stroke-width:2.383;stroke-miterlimit:4;stroke-dasharray:none;stroke-opacity:1"
                 id="ellipse1150"
                 cx="648.56812"
                 cy="380.51901"
                 rx="22.318281"
                 ry="7.973999" />
            </g>
            <use
               height="100%"
               width="100%"
               id="use1154"
               xlink:href="#g974"
               inkscape:tiled-clone-of="#g974"
               y="0"
               x="0"
               transform="translate(12.125759,-19.098605)" />
            <use
               height="100%"
               width="100%"
               id="use1156"
               transform="translate(37.640139,-19.098605)"
               xlink:href="#g974"
               inkscape:tiled-clone-of="#g974"
               y="0"
               x="0" />
            <use
               height="100%"
               width="100%"
               id="use1158"
               transform="translate(63.154518,-19.098605)"
               xlink:href="#g974"
               inkscape:tiled-clone-of="#g974"
               y="0"
               x="0" />
            <use
               height="100%"
               width="100%"
               id="use1160"
               transform="translate(88.668898,-19.098605)"
               xlink:href="#g974"
               inkscape:tiled-clone-of="#g974"
               y="0"
               x="0" />
            <use
               height="100%"
               width="100%"
               id="use1162"
               transform="translate(114.18328,-19.098605)"
               xlink:href="#g974"
               inkscape:tiled-clone-of="#g974"
               y="0"
               x="0" />
            <use
               height="100%"
               width="100%"
               id="use1164"
               transform="translate(139.69766,-19.098605)"
               xlink:href="#g974"
               inkscape:tiled-clone-of="#g974"
               y="0"
               x="0" />
            <use
               height="100%"
               width="100%"
               id="use1166"
               transform="translate(165.21204,-19.098605)"
               xlink:href="#g974"
               inkscape:tiled-clone-of="#g974"
               y="0"
               x="0" />
            <use
               height="100%"
               width="100%"
               id="use1168"
               transform="translate(190.72642,-19.098605)"
               xlink:href="#g974"
               inkscape:tiled-clone-of="#g974"
               y="0"
               x="0" />
          </g>
        </g>
        <path
           sodipodi:nodetypes="sccccccccccccccccccss"
           id="path932"
           d="m 1091.6258,149.11416 c -0.3954,0.004 -0.7902,0.0342 -1.1819,0.0883 -5.1695,0.71229 -4.3235,-1.05102 -3.6119,4.11859 l 3.6961,65.65148 c 0.1895,1.37068 0.6776,2.68305 1.43,3.84435 l 35.415,54.66612 -0.6603,13.08084 -3.4658,2.10304 -83.1412,-1.56467 c -5.2171,-0.0969 -9.5253,4.05309 -9.6234,9.27016 -0.099,5.21873 4.0514,9.52953 9.2701,9.62766 l 85.8751,1.61513 c 1.7893,0.0332 3.5513,-0.44225 5.0809,-1.37116 l 10.0904,-6.12402 c 2.6775,-1.62548 4.3757,-4.47205 4.5341,-7.60035 l 1.0683,-21.13544 c 0.1006,-1.98341 -0.4263,-3.94812 -1.5057,-5.6151 l -35.9324,-55.46107 -7.8695,-57.03835 c -0.6515,-4.71507 -4.7083,-8.20958 -9.4679,-8.15555 z"
           style="color:#000000;font-style:normal;font-variant:normal;font-weight:normal;font-stretch:normal;font-size:medium;line-height:normal;font-family:sans-serif;font-variant-ligatures:normal;font-variant-position:normal;font-variant-caps:normal;font-variant-numeric:normal;font-variant-alternates:normal;font-variant-east-asian:normal;font-feature-settings:normal;font-variation-settings:normal;text-indent:0;text-align:start;text-decoration:none;text-decoration-line:none;text-decoration-style:solid;text-decoration-color:#000000;letter-spacing:normal;word-spacing:normal;text-transform:none;writing-mode:lr-tb;direction:ltr;text-orientation:mixed;dominant-baseline:auto;baseline-shift:baseline;text-anchor:start;white-space:normal;shape-padding:0;shape-margin:0;inline-size:0;clip-rule:nonzero;display:inline;overflow:visible;visibility:visible;isolation:auto;mix-blend-mode:normal;color-interpolation:sRGB;color-interpolation-filters:linearRGB;solid-color:#000000;solid-opacity:1;vector-effect:none;fill:#797979;fill-opacity:1;fill-rule:nonzero;stroke:none;stroke-width:18.899;stroke-linecap:round;stroke-linejoin:round;stroke-miterlimit:4;stroke-dasharray:none;stroke-dashoffset:0;stroke-opacity:1;color-rendering:auto;image-rendering:auto;shape-rendering:auto;text-rendering:auto;enable-background:accumulate;stop-color:#000000" />
        <path
           style="color:#000000;font-style:normal;font-variant:normal;font-weight:normal;font-stretch:normal;font-size:medium;line-height:normal;font-family:sans-serif;font-variant-ligatures:normal;font-variant-position:normal;font-variant-caps:normal;font-variant-numeric:normal;font-variant-alternates:normal;font-variant-east-asian:normal;font-feature-settings:normal;font-variation-settings:normal;text-indent:0;text-align:start;text-decoration:none;text-decoration-line:none;text-decoration-style:solid;text-decoration-color:#000000;letter-spacing:normal;word-spacing:normal;text-transform:none;writing-mode:lr-tb;direction:ltr;text-orientation:mixed;dominant-baseline:auto;baseline-shift:baseline;text-anchor:start;white-space:normal;shape-padding:0;shape-margin:0;inline-size:0;clip-rule:nonzero;display:inline;overflow:visible;visibility:visible;isolation:auto;mix-blend-mode:normal;color-interpolation:sRGB;color-interpolation-filters:linearRGB;solid-color:#000000;solid-opacity:1;vector-effect:none;fill:#797979;fill-opacity:1;fill-rule:nonzero;stroke:none;stroke-width:18.899;stroke-linecap:round;stroke-linejoin:round;stroke-miterlimit:4;stroke-dasharray:none;stroke-dashoffset:0;stroke-opacity:1;color-rendering:auto;image-rendering:auto;shape-rendering:auto;text-rendering:auto;enable-background:accumulate;stop-color:#000000"
           d="m 638.27683,149.11416 c 0.39543,0.004 0.79019,0.0342 1.18191,0.0883 5.16952,0.71229 4.32352,-1.05102 3.61187,4.11859 l -3.69601,65.65148 c -0.18951,1.37068 -0.67769,2.68305 -1.43005,3.84435 l -35.41501,54.66612 0.66035,13.08084 3.46579,2.10304 83.14116,-1.56467 c 5.21709,-0.0969 9.52532,4.05309 9.62346,9.27016 0.0993,5.21873 -4.05141,9.52953 -9.27016,9.62766 l -85.87507,1.61513 c -1.78931,0.0332 -3.55128,-0.44225 -5.08093,-1.37116 l -10.09034,-6.12402 c -2.67754,-1.62548 -4.3757,-4.47205 -4.53414,-7.60035 l -1.06833,-21.13544 c -0.10056,-1.98341 0.42633,-3.94812 1.50577,-5.6151 l 35.93236,-55.46107 7.86952,-57.03835 c 0.65148,-4.71507 4.70829,-8.20958 9.46785,-8.15555 z"
           id="path934"
           sodipodi:nodetypes="sccccccccccccccccccss" />
        <g
           transform="matrix(2.1535016,0,0,2.1535016,-520.06734,-140.76088)"
           id="g1245">
          <rect
             style="opacity:1;fill:#797979;fill-opacity:1;stroke:none;stroke-width:1.95866;stroke-linecap:round;stroke-linejoin:round;stroke-miterlimit:4;stroke-dasharray:none;stroke-opacity:1"
             id="rect1238"
             width="42.689949"
             height="13.271246"
             x="621.7074"
             y="61.106972"
             ry="4.0958848" />
          <path
             id="rect1240"
             style="opacity:1;fill:#797979;fill-opacity:1;stroke:none;stroke-width:2.383;stroke-linecap:round;stroke-linejoin:round;stroke-miterlimit:4;stroke-dasharray:none;stroke-opacity:1"
             d="m 637.17328,49.118599 3.09389,2 3.16169,-2 3.05464,2 3.51318,-2 v 15.808449 h -12.8234 z"
             sodipodi:nodetypes="cccccccc" />
        </g>
        <rect
           ry="5.7273846"
           y="-134.33827"
           x="1019.9136"
           height="25.387421"
           width="30.968088"
           id="rect1251"
           style="fill:#494441;fill-opacity:1;stroke:none;stroke-width:5.13179;stroke-linecap:round;stroke-linejoin:round;stroke-miterlimit:4;stroke-dasharray:none;stroke-opacity:1" />
        <path
           sodipodi:nodetypes="csc"
           id="path1279"
           d="m 825.17433,-32.382528 c 0,0 4.42813,-16.639483 10.92279,-16.570894 6.75002,0.07128 10.99554,16.570894 10.99554,16.570894"
           style="fill:none;stroke:#000000;stroke-width:2.48393;stroke-linecap:round;stroke-linejoin:round;stroke-miterlimit:4;stroke-dasharray:none;stroke-opacity:1" />
        <path
           style="fill:none;stroke:#000000;stroke-width:2.48393;stroke-linecap:round;stroke-linejoin:round;stroke-miterlimit:4;stroke-dasharray:none;stroke-opacity:1"
           d="m 884.84079,-32.382528 c 0,0 4.42814,-16.639483 10.9228,-16.570894 6.75002,0.07128 10.99554,16.570894 10.99554,16.570894"
           id="path1281"
           sodipodi:nodetypes="csc" />
        <path
           sodipodi:nodetypes="ccc"
           id="path1283"
           d="m 678.75872,-115.26204 v 33.125032 l 371.94298,-0.136316"
           style="fill:none;stroke:#c2a9a0;stroke-width:9.04471;stroke-linecap:round;stroke-linejoin:miter;stroke-miterlimit:4;stroke-dasharray:none;stroke-opacity:1" />
        <path
           d="m 703.00872,-167.17798 -0.0672,5.19027 H 688.8975 v 10.6834 h 13.90943 l -0.39958,31.39401 c 7.96115,-0.29758 14.25854,-5.22533 14.25854,-11.31851 l 0.60148,-35.94917 z"
           style="fill:#bfa79b;fill-opacity:1;stroke:none;stroke-width:18.1279;stroke-linecap:round;stroke-linejoin:round;stroke-miterlimit:4;stroke-dasharray:none;stroke-opacity:1"
           id="rect1285" />
        <path
           sodipodi:nodetypes="cccsscccccccssccccccc"
           d="m 639.62044,-138.58853 -6.08616,10.49832 c -4.05166,1.82584 -8.9919,4.10918 -14.51931,6.86006 -12.76282,6.35191 -27.53593,14.41976 -36.68945,22.914617 -11.04268,10.248105 -17.13121,23.754561 -23.5497,35.414999 -3.7648,6.839502 -7.84366,16.686065 -9.68234,21.194334 l -11.4489,-0.769704 c -5.71709,-14.350786 3.26684,-27.006487 -0.38696,-42.1321 -4.03939,-13.160798 -10.41298,-13.675829 -22.17432,-14.250104 0.57011,23.014898 -1.57891,48.348609 10.4226,65.345314 9.62807,3.74578 20.65957,2.835387 30.89351,3.52468 4.01975,-9.191985 7.45678,-18.729025 12.18914,-27.511825 6.68298,-12.140971 12.48232,-24.371955 21.35414,-32.605369 7.20868,-6.689961 21.677,-14.936532 34.06487,-21.101792 6.22655,-3.09883 11.47823,-5.50763 13.54557,-6.2196 l 24.74218,-0.74985 33.16752,23.965096 -0.0274,-20.250886 -24.18126,-12.21255 -7.28491,-11.79587 z"
           style="color:#000000;font-style:normal;font-variant:normal;font-weight:normal;font-stretch:normal;font-size:medium;line-height:normal;font-family:sans-serif;font-variant-ligatures:normal;font-variant-position:normal;font-variant-caps:normal;font-variant-numeric:normal;font-variant-alternates:normal;font-variant-east-asian:normal;font-feature-settings:normal;font-variation-settings:normal;text-indent:0;text-align:start;text-decoration:none;text-decoration-line:none;text-decoration-style:solid;text-decoration-color:#000000;letter-spacing:normal;word-spacing:normal;text-transform:none;writing-mode:lr-tb;direction:ltr;text-orientation:mixed;dominant-baseline:auto;baseline-shift:baseline;text-anchor:start;white-space:normal;shape-padding:0;shape-margin:0;inline-size:0;clip-rule:nonzero;display:inline;overflow:visible;visibility:visible;isolation:auto;mix-blend-mode:normal;color-interpolation:sRGB;color-interpolation-filters:linearRGB;solid-color:#000000;solid-opacity:1;vector-effect:none;fill:#bfa99e;fill-opacity:1;fill-rule:nonzero;stroke:none;stroke-width:11.1982;stroke-linecap:butt;stroke-linejoin:miter;stroke-miterlimit:4;stroke-dasharray:none;stroke-dashoffset:0;stroke-opacity:1;color-rendering:auto;image-rendering:auto;shape-rendering:auto;text-rendering:auto;enable-background:accumulate;stop-color:#000000"
           id="path1308" />
      </g>
    </g>
    <text
       xml:space="preserve"
       transform="matrix(1.6494586,0,0,1.6494586,444.06842,-753.75989)"
       id="text1"
       style="font-style:normal;font-variant:normal;font-weight:900;font-stretch:normal;font-size:56px;line-height:1.25;font-family:'Source Code Pro';-inkscape-font-specification:'Source Code Pro, Heavy';font-variant-ligatures:normal;font-variant-caps:normal;font-variant-numeric:normal;font-variant-east-asian:normal;white-space:pre;shape-inside:url(#rect1);shape-padding:3.87583;fill:#00adef;fill-opacity:1;stroke:none"><tspan
         x="315.36719"
         y="192.94336"
         id="tspan2">&lt;MIN&gt;</tspan></text>
  </g>
</svg>
